<?xml version="1.0" standalone="no"?>
<!DOCTYPE svg PUBLIC "-//W3C//DTD SVG 20010904//EN"
 "http://www.w3.org/TR/2001/REC-SVG-20010904/DTD/svg10.dtd">
<svg version="1.0" xmlns="http://www.w3.org/2000/svg"
 width="512.000000pt" height="512.000000pt" viewBox="0 0 512.000000 512.000000"
 preserveAspectRatio="xMidYMid meet">
<g transform="translate(0.000000,512.000000) scale(0.100000,-0.100000)"
fill="#000000" stroke="none">
<path d="M1615 4386 c-37 -16 -70 -52 -84 -89 -7 -18 -11 -131 -11 -298 0
-302 3 -317 65 -365 31 -23 50 -29 106 -32 l69 -4 0 -519 0 -519 -359 0 -359
0 -4 70 c-4 74 -19 105 -72 144 -26 20 -40 21 -326 21 -286 0 -300 -1 -326
-21 -15 -11 -37 -33 -48 -48 -21 -27 -21 -36 -24 -952 -3 -1024 -6 -967 64
-1020 l37 -29 298 0 c285 0 299 1 325 21 53 39 68 70 72 144 l4 70 1519 0
1519 0 0 -55 c0 -72 19 -116 66 -151 l37 -29 298 0 c285 0 299 1 325 21 15 11
37 33 48 48 21 27 21 34 21 966 0 932 0 939 -21 966 -11 15 -33 37 -48 48 -26
20 -40 21 -326 21 -286 0 -300 -1 -326 -21 -53 -39 -68 -70 -72 -144 l-4 -70
-359 0 -359 0 0 519 0 519 70 4 c74 4 105 19 144 72 20 26 21 40 21 326 0 286
-1 300 -21 326 -11 15 -33 37 -48 48 -27 21 -36 21 -954 23 -757 2 -932 0
-957 -11z m1914 -56 l41 -40 0 -289 0 -289 -38 -38 c-35 -36 -42 -39 -102 -42
-109 -6 -100 43 -100 -550 0 -466 2 -517 17 -534 15 -17 40 -18 371 -18 414 0
392 -5 392 95 0 43 5 66 15 75 8 7 15 19 15 28 0 8 3 13 6 9 3 -3 15 3 26 13
19 18 40 19 309 19 l288 0 40 -39 41 -40 0 -929 0 -929 -39 -40 -40 -41 -290
0 -291 -1 -40 41 c-38 38 -40 44 -40 102 0 109 184 97 -1548 97 -1729 0 -1552
11 -1552 -95 0 -59 -2 -65 -39 -103 l-40 -41 -290 0 -291 -1 -40 41 -40 41 0
928 c0 812 2 929 15 940 8 7 15 19 15 28 0 8 3 13 6 9 3 -3 15 3 26 13 19 18
40 19 309 19 l288 0 40 -39 c39 -38 41 -43 41 -102 0 -104 -24 -98 388 -98
317 0 357 2 374 17 17 15 18 45 18 533 0 595 9 548 -99 551 -59 2 -66 5 -102
41 l-39 40 0 288 c0 243 2 289 15 300 8 7 15 19 15 28 0 8 3 13 6 9 3 -3 15 3
27 13 20 19 46 20 948 20 l927 0 41 -40z"/>
<path d="M1667 4252 c-15 -16 -17 -49 -17 -254 0 -215 2 -236 18 -251 17 -16
93 -17 894 -17 835 0 876 1 891 18 15 16 17 49 17 254 0 215 -2 236 -18 251
-17 16 -93 17 -894 17 -835 0 -876 -1 -891 -18z m1773 -252 l0 -240 -880 0
-880 0 0 240 0 240 880 0 880 0 0 -240z"/>
<path d="M1907 3612 c-15 -17 -17 -70 -17 -559 l0 -540 22 -29 c41 -52 141
-128 153 -116 3 4 5 0 3 -8 -2 -8 4 -15 12 -15 9 0 29 -10 44 -23 16 -12 32
-19 36 -17 5 3 11 1 15 -5 3 -5 14 -10 24 -10 9 0 23 -6 30 -12 6 -7 15 -13
19 -14 4 0 14 -3 22 -6 77 -28 142 -41 237 -45 114 -6 256 9 281 29 6 6 12 8
12 5 0 -3 15 0 33 8 17 7 34 13 37 13 11 -2 56 15 69 25 7 6 20 12 28 13 8 2
23 10 32 18 10 9 22 16 27 16 16 0 101 65 153 118 l51 50 0 545 c0 514 -1 545
-18 560 -17 15 -77 17 -654 17 -602 0 -636 -1 -651 -18z m1293 -556 l0 -543
-45 -42 c-100 -92 -251 -170 -401 -208 -104 -26 -306 -24 -409 4 -143 39 -281
113 -380 204 l-45 42 0 543 0 544 640 0 640 0 0 -544z"/>
<path d="M3140 2536 c0 -2 8 -10 18 -17 15 -13 16 -12 3 4 -13 16 -21 21 -21
13z"/>
<path d="M387 2652 c-16 -17 -17 -93 -17 -894 0 -835 1 -876 18 -891 16 -15
49 -17 254 -17 215 0 236 2 251 18 16 17 17 93 17 894 0 835 -1 876 -18 891
-16 15 -49 17 -254 17 -215 0 -236 -2 -251 -18z m493 -892 l0 -880 -240 0
-240 0 0 880 0 880 240 0 240 0 0 -880z"/>
<path d="M4227 2652 c-16 -17 -17 -93 -17 -894 0 -835 1 -876 18 -891 16 -15
49 -17 254 -17 215 0 236 2 251 18 16 17 17 93 17 894 0 835 -1 876 -18 891
-16 15 -49 17 -254 17 -215 0 -236 -2 -251 -18z m493 -892 l0 -880 -240 0
-240 0 0 880 0 880 240 0 240 0 0 -880z"/>
<path d="M1027 2412 c-15 -17 -17 -77 -17 -654 0 -602 1 -636 18 -651 17 -16
138 -17 1534 -17 1455 0 1516 1 1531 18 15 17 17 77 17 654 0 602 -1 636 -18
651 -17 15 -59 17 -400 17 l-381 0 -73 -62 c-115 -97 -113 -95 -103 -78 4 8
-2 6 -13 -5 -37 -35 -52 -46 -52 -38 0 4 -4 3 -8 -3 -15 -24 -284 -119 -309
-110 -8 3 -11 2 -8 -4 3 -5 -3 -9 -12 -9 -10 0 -38 -3 -63 -5 -38 -5 -147 -7
-200 -4 -8 0 -21 5 -27 11 -9 6 -13 6 -13 -2 0 -6 -5 -11 -11 -11 -5 0 -8 3
-6 8 3 4 -5 8 -16 8 -21 2 -82 12 -82 14 0 0 -37 13 -82 28 -45 15 -79 23 -77
17 3 -5 -2 -1 -10 9 -9 11 -16 17 -16 13 0 -4 -9 1 -20 11 -12 9 -24 17 -28
17 -8 1 -52 26 -97 55 -16 11 -40 25 -52 31 -13 7 -23 16 -23 20 0 4 -23 26
-51 48 l-52 41 -382 0 c-357 0 -383 -1 -398 -18z m841 -69 c329 -278 758 -339
1137 -159 105 49 161 86 252 163 l62 53 381 0 380 0 0 -640 0 -640 -1520 0
-1520 0 0 640 0 640 381 0 380 0 67 -57z"/>
</g>
</svg>
